<svg xmlns="http://www.w3.org/2000/svg" xmlns:xlink="http://www.w3.org/1999/xlink" width="500" zoomAndPan="magnify" viewBox="0 0 375 374.999991" height="500" preserveAspectRatio="xMidYMid meet" version="1.0"><defs><g/><clipPath id="2bb64b15c8"><path d="M 37.113281 82.992188 L 218 82.992188 L 218 292.242188 L 37.113281 292.242188 Z M 37.113281 82.992188 " clip-rule="nonzero"/></clipPath><clipPath id="a4c8149016"><path d="M 105.089844 131.25 L 150.792969 131.25 L 150.792969 187.5 L 105.089844 187.5 Z M 105.089844 131.25 " clip-rule="nonzero"/></clipPath><clipPath id="881e3c67a8"><path d="M 120.332031 132.570312 C 122.667969 131.773438 125.339844 131.25 127.953125 131.25 C 130.566406 131.25 133.082031 131.699219 135.402344 132.496094 C 135.449219 132.519531 135.5 132.519531 135.550781 132.542969 C 144.253906 135.730469 150.667969 144.148438 150.792969 153.984375 L 150.792969 187.5 L 105.089844 187.5 L 105.089844 154.007812 C 105.210938 144.097656 111.527344 135.683594 120.332031 132.570312 " clip-rule="nonzero"/></clipPath></defs><g clip-path="url(#2bb64b15c8)"><path fill="#ddc1a7" d="M 186.894531 292.21875 L 68.234375 292.21875 C 67.21875 292.21875 66.207031 292.167969 65.195312 292.066406 C 64.1875 291.964844 63.183594 291.816406 62.1875 291.617188 C 61.191406 291.417969 60.207031 291.167969 59.238281 290.871094 C 58.265625 290.578125 57.3125 290.234375 56.375 289.84375 C 55.433594 289.453125 54.519531 289.019531 53.625 288.539062 C 52.726562 288.058594 51.859375 287.535156 51.015625 286.96875 C 50.171875 286.40625 49.355469 285.800781 48.570312 285.152344 C 47.785156 284.507812 47.035156 283.824219 46.316406 283.105469 C 45.597656 282.386719 44.917969 281.632812 44.273438 280.847656 C 43.628906 280.0625 43.023438 279.246094 42.460938 278.398438 C 41.894531 277.554688 41.375 276.683594 40.894531 275.785156 C 40.417969 274.886719 39.980469 273.96875 39.59375 273.03125 C 39.203125 272.089844 38.863281 271.132812 38.566406 270.160156 C 38.269531 269.1875 38.023438 268.203125 37.824219 267.203125 C 37.625 266.207031 37.476562 265.203125 37.375 264.1875 C 37.273438 263.175781 37.222656 262.164062 37.222656 261.144531 L 37.222656 177.800781 C 37.21875 175.839844 37.402344 173.894531 37.773438 171.964844 C 38.144531 170.039062 38.699219 168.164062 39.433594 166.34375 C 40.167969 164.523438 41.070312 162.792969 42.140625 161.148438 C 43.210938 159.503906 44.425781 157.976562 45.792969 156.570312 L 109.269531 90.792969 C 109.859375 90.179688 110.480469 89.59375 111.128906 89.042969 C 111.777344 88.488281 112.453125 87.96875 113.15625 87.484375 C 113.855469 87 114.582031 86.554688 115.328125 86.140625 C 116.074219 85.730469 116.839844 85.355469 117.625 85.023438 C 118.40625 84.6875 119.207031 84.394531 120.019531 84.140625 C 120.832031 83.886719 121.65625 83.675781 122.492188 83.503906 C 123.328125 83.332031 124.167969 83.203125 125.015625 83.121094 C 125.863281 83.035156 126.714844 82.992188 127.566406 82.992188 C 128.417969 82.992188 129.265625 83.035156 130.113281 83.121094 C 130.960938 83.203125 131.804688 83.332031 132.636719 83.503906 C 133.472656 83.675781 134.296875 83.886719 135.109375 84.140625 C 135.925781 84.394531 136.722656 84.6875 137.507812 85.023438 C 138.292969 85.355469 139.054688 85.730469 139.800781 86.140625 C 140.550781 86.554688 141.273438 87 141.972656 87.484375 C 142.675781 87.96875 143.351562 88.488281 144 89.042969 C 144.648438 89.59375 145.269531 90.179688 145.859375 90.792969 L 215.253906 162.695312 C 215.6875 163.140625 216.074219 163.625 216.414062 164.148438 C 216.753906 164.671875 217.035156 165.222656 217.265625 165.800781 C 217.496094 166.378906 217.667969 166.972656 217.78125 167.585938 C 217.894531 168.199219 217.945312 168.816406 217.9375 169.4375 C 217.929688 170.0625 217.859375 170.679688 217.726562 171.285156 C 217.597656 171.894531 217.410156 172.484375 217.164062 173.058594 C 216.914062 173.628906 216.617188 174.171875 216.261719 174.683594 C 215.90625 175.195312 215.507812 175.667969 215.0625 176.101562 C 214.613281 176.535156 214.128906 176.917969 213.605469 177.257812 C 213.082031 177.59375 212.535156 177.875 211.953125 178.101562 C 211.375 178.332031 210.78125 178.5 210.167969 178.609375 C 209.558594 178.722656 208.941406 178.769531 208.320312 178.757812 C 207.699219 178.746094 207.082031 178.671875 206.476562 178.539062 C 205.871094 178.40625 205.28125 178.214844 204.710938 177.964844 C 204.140625 177.714844 203.601562 177.410156 203.09375 177.054688 C 202.582031 176.699219 202.113281 176.292969 201.683594 175.84375 L 132.285156 103.96875 C 131.980469 103.644531 131.648438 103.359375 131.289062 103.101562 C 130.925781 102.847656 130.542969 102.632812 130.136719 102.457031 C 129.730469 102.28125 129.3125 102.148438 128.878906 102.058594 C 128.445312 101.96875 128.007812 101.921875 127.566406 101.921875 C 127.121094 101.921875 126.683594 101.96875 126.253906 102.058594 C 125.820312 102.148438 125.398438 102.28125 124.992188 102.457031 C 124.589844 102.632812 124.203125 102.847656 123.84375 103.101562 C 123.480469 103.359375 123.148438 103.644531 122.847656 103.96875 L 59.363281 169.71875 C 58.316406 170.804688 57.511719 172.050781 56.953125 173.453125 C 56.394531 174.855469 56.117188 176.3125 56.125 177.824219 L 56.125 261.144531 C 56.128906 261.941406 56.207031 262.734375 56.363281 263.515625 C 56.519531 264.296875 56.75 265.058594 57.054688 265.796875 C 57.359375 266.53125 57.734375 267.234375 58.175781 267.894531 C 58.621094 268.558594 59.121094 269.171875 59.6875 269.738281 C 60.25 270.300781 60.863281 270.804688 61.523438 271.25 C 62.1875 271.695312 62.886719 272.070312 63.621094 272.375 C 64.355469 272.679688 65.113281 272.910156 65.894531 273.066406 C 66.675781 273.222656 67.464844 273.304688 68.261719 273.304688 L 186.921875 273.304688 C 187.542969 273.304688 188.15625 273.363281 188.761719 273.484375 C 189.371094 273.605469 189.960938 273.785156 190.535156 274.023438 C 191.105469 274.261719 191.648438 274.554688 192.164062 274.898438 C 192.679688 275.242188 193.15625 275.636719 193.597656 276.074219 C 194.035156 276.511719 194.425781 276.992188 194.769531 277.507812 C 195.113281 278.023438 195.40625 278.570312 195.640625 279.140625 C 195.878906 279.714844 196.058594 280.308594 196.179688 280.917969 C 196.300781 281.527344 196.359375 282.140625 196.359375 282.761719 C 196.359375 283.382812 196.300781 283.996094 196.179688 284.605469 C 196.058594 285.214844 195.878906 285.808594 195.640625 286.378906 C 195.40625 286.953125 195.113281 287.5 194.769531 288.015625 C 194.425781 288.53125 194.035156 289.007812 193.597656 289.449219 C 193.15625 289.886719 192.679688 290.28125 192.164062 290.625 C 191.648438 290.96875 191.105469 291.261719 190.535156 291.5 C 189.960938 291.738281 189.371094 291.914062 188.761719 292.035156 C 188.15625 292.160156 187.542969 292.21875 186.921875 292.21875 Z M 186.894531 292.21875 " fill-opacity="1" fill-rule="nonzero"/></g><g clip-path="url(#a4c8149016)"><g clip-path="url(#881e3c67a8)"><path fill="#5b4f47" d="M 105.089844 131.25 L 150.792969 131.25 L 150.792969 187.5 L 105.089844 187.5 Z M 105.089844 131.25 " fill-opacity="1" fill-rule="nonzero"/></g></g><g fill="#5b4f47" fill-opacity="1"><g transform="translate(206.45331, 291.052538)"><g><path d="M 15.902344 7.171875 C 16.257812 7.171875 16.683594 6.601562 17.039062 6.035156 C 17.179688 5.820312 17.109375 5.609375 16.898438 5.464844 C 19.097656 1.417969 21.296875 -1.988281 25.628906 -7.667969 L 31.308594 -7.453125 L 31.378906 -7.453125 C 31.59375 -7.453125 31.804688 -7.597656 31.804688 -7.808594 C 31.804688 -8.09375 31.59375 -8.234375 31.378906 -8.234375 C 29.675781 -8.378906 27.972656 -8.449219 26.269531 -8.449219 C 30.457031 -14.058594 34.859375 -19.3125 37.980469 -22.292969 C 38.054688 -22.363281 38.125 -22.503906 38.125 -22.578125 C 38.125 -22.789062 37.910156 -23.003906 37.699219 -23.003906 C 37.554688 -23.003906 37.484375 -22.929688 37.414062 -22.859375 C 34.21875 -19.808594 29.605469 -14.269531 25.203125 -8.449219 C 20.019531 -8.589844 14.839844 -8.378906 10.222656 -7.953125 C 14.199219 -13.488281 18.316406 -18.957031 21.015625 -21.867188 C 21.085938 -21.9375 21.15625 -22.007812 21.15625 -22.152344 C 21.15625 -22.363281 20.945312 -22.503906 20.730469 -22.503906 C 20.589844 -22.503906 20.515625 -22.503906 20.445312 -22.433594 C 17.605469 -19.382812 13.347656 -13.773438 9.300781 -8.09375 C 9.160156 -7.953125 9.085938 -7.878906 8.945312 -7.878906 C 7.242188 -7.667969 5.609375 -7.527344 4.117188 -7.3125 C 3.90625 -7.3125 3.761719 -7.097656 3.761719 -6.886719 C 3.761719 -6.671875 3.90625 -6.460938 4.1875 -6.460938 L 4.1875 -6.53125 C 5.539062 -6.671875 7.027344 -6.886719 8.519531 -7.027344 C 5.964844 -3.40625 3.480469 0.214844 1.5625 3.054688 C 1.492188 3.125 1.492188 3.195312 1.492188 3.335938 C 1.492188 3.550781 1.632812 3.691406 1.917969 3.691406 C 2.058594 3.691406 2.128906 3.621094 2.199219 3.550781 C 4.257812 0.496094 6.886719 -3.265625 9.585938 -7.097656 C 14.199219 -7.527344 19.382812 -7.738281 24.636719 -7.667969 C 20.089844 -1.632812 17.679688 1.988281 15.691406 5.964844 C 15.40625 6.53125 15.265625 7.171875 15.902344 7.171875 Z M 15.902344 7.171875 "/></g></g></g><g fill="#5b4f47" fill-opacity="1"><g transform="translate(239.890621, 291.052538)"><g><path d="M -0.425781 0.566406 C 1.847656 0.566406 4.046875 -3.265625 3.621094 -6.035156 C 3.621094 -6.175781 3.691406 -6.320312 3.832031 -6.175781 C 7.953125 -3.621094 13.417969 -3.335938 17.109375 -5.464844 C 17.25 -5.539062 17.394531 -5.679688 17.394531 -5.820312 C 17.394531 -6.035156 17.179688 -6.175781 16.96875 -6.175781 L 16.753906 -6.175781 C 13.347656 -4.1875 8.378906 -4.472656 4.542969 -6.746094 C 4.402344 -6.816406 4.402344 -6.886719 4.542969 -6.957031 C 4.613281 -7.027344 4.757812 -7.027344 4.828125 -7.097656 C 5.039062 -7.097656 5.113281 -7.242188 5.113281 -7.453125 C 5.113281 -7.667969 4.96875 -7.878906 4.757812 -7.878906 C 4.6875 -7.878906 4.613281 -7.878906 4.613281 -7.808594 C 4.257812 -7.738281 3.90625 -7.597656 3.621094 -7.453125 C 3.480469 -7.382812 3.480469 -7.382812 3.335938 -7.453125 C 3.054688 -7.527344 2.769531 -7.3125 2.625 -7.027344 C 2.625 -6.957031 2.554688 -6.957031 2.554688 -6.886719 C 0.0703125 -5.394531 -1.773438 -3.054688 -1.773438 -1.066406 C -1.773438 -0.0703125 -1.277344 0.566406 -0.425781 0.566406 Z M -0.425781 -0.214844 C -0.78125 -0.214844 -0.992188 -0.496094 -0.992188 -1.066406 C -0.992188 -2.699219 0.640625 -4.757812 2.839844 -6.105469 C 3.195312 -3.832031 1.277344 -0.214844 -0.425781 -0.214844 Z M -0.425781 -0.214844 "/></g></g></g><g fill="#5b4f47" fill-opacity="1"><g transform="translate(255.224925, 291.052538)"><g><path d="M -1.988281 0.425781 C -1.417969 0.425781 -0.425781 -0.285156 2.769531 -2.980469 C 5.964844 -5.539062 9.65625 -8.660156 11.359375 -8.660156 C 11.644531 -8.660156 11.785156 -8.519531 11.785156 -8.304688 C 11.785156 -7.808594 11.21875 -6.746094 9.726562 -4.402344 C 8.378906 -2.484375 8.023438 -1.773438 8.023438 -1.277344 C 8.023438 -0.921875 8.164062 -0.640625 8.519531 -0.640625 C 8.945312 -0.640625 9.65625 -0.992188 11.570312 -2.199219 C 14.058594 -3.691406 15.050781 -4.1875 15.546875 -4.1875 C 15.761719 -4.1875 15.832031 -4.046875 15.832031 -3.976562 C 15.832031 -3.691406 15.761719 -3.335938 15.691406 -2.910156 C 15.617188 -2.484375 15.617188 -1.988281 15.617188 -1.492188 C 15.617188 -0.640625 16.257812 -0.140625 17.394531 -0.140625 C 19.382812 -0.140625 22.363281 -1.632812 27.902344 -5.464844 C 28.042969 -5.539062 28.113281 -5.679688 28.113281 -5.820312 C 28.113281 -6.035156 27.902344 -6.175781 27.6875 -6.175781 C 27.617188 -6.175781 27.546875 -6.175781 27.476562 -6.105469 C 22.078125 -2.414062 19.167969 -0.921875 17.394531 -0.921875 C 16.683594 -0.921875 16.398438 -1.136719 16.398438 -1.492188 C 16.398438 -1.917969 16.472656 -2.414062 16.542969 -2.839844 C 16.542969 -3.195312 16.613281 -3.621094 16.613281 -3.976562 C 16.613281 -4.613281 16.328125 -4.96875 15.691406 -4.96875 C 14.695312 -4.96875 12.777344 -3.832031 11.144531 -2.910156 L 9.585938 -1.917969 C 9.300781 -1.773438 9.085938 -1.988281 9.300781 -2.273438 L 10.367188 -3.976562 C 12 -6.460938 12.636719 -7.527344 12.636719 -8.378906 C 12.636719 -9.085938 12.070312 -9.441406 11.144531 -9.441406 C 9.796875 -9.441406 7.527344 -7.878906 2.273438 -3.550781 C 0.710938 -2.34375 -0.285156 -1.492188 -0.992188 -0.992188 C -1.207031 -0.851562 -1.492188 -0.992188 -1.277344 -1.277344 C -0.425781 -2.769531 1.632812 -5.464844 3.90625 -7.527344 C 3.976562 -7.597656 4.046875 -7.738281 4.046875 -7.808594 C 4.046875 -8.09375 3.832031 -8.234375 3.621094 -8.234375 C 3.550781 -8.234375 3.40625 -8.234375 3.335938 -8.164062 C 0.851562 -5.894531 -2.625 -1.277344 -2.625 -0.285156 C -2.625 0.140625 -2.414062 0.355469 -1.988281 0.425781 Z M -1.988281 0.425781 "/></g></g></g><g fill="#5b4f47" fill-opacity="1"><g transform="translate(281.350045, 291.052538)"><g><path d="M 2.34375 0.214844 C 4.542969 0.214844 11.429688 -1.773438 16.398438 -5.464844 C 16.542969 -5.539062 16.613281 -5.679688 16.613281 -5.820312 C 16.613281 -6.035156 16.398438 -6.175781 16.1875 -6.175781 C 16.117188 -6.175781 16.042969 -6.175781 15.972656 -6.105469 C 11.074219 -2.554688 4.402344 -0.640625 2.34375 -0.640625 C 0.710938 -0.640625 -0.140625 -1.066406 -0.140625 -1.988281 C -0.140625 -2.910156 0.566406 -4.046875 1.492188 -5.039062 C 1.917969 -4.828125 2.484375 -4.757812 3.265625 -4.757812 C 4.542969 -4.757812 6.175781 -5.820312 6.175781 -6.746094 C 6.175781 -7.453125 5.679688 -7.878906 4.898438 -7.878906 C 2.554688 -7.878906 -0.992188 -4.332031 -0.992188 -1.988281 C -0.992188 -0.566406 0.285156 0.214844 2.34375 0.214844 Z M 3.265625 -5.539062 C 2.769531 -5.539062 2.414062 -5.609375 2.128906 -5.679688 C 3.054688 -6.460938 4.046875 -7.027344 4.898438 -7.027344 C 5.253906 -7.027344 5.394531 -6.957031 5.394531 -6.746094 C 5.394531 -6.320312 4.046875 -5.539062 3.265625 -5.539062 Z M 3.265625 -5.539062 "/></g></g></g><g fill="#5b4f47" fill-opacity="1"><g transform="translate(86.131231, 246.972194)"><g><path d="M 18.800781 0 L 25.683594 0 L 25.683594 -0.90625 L 25.429688 -0.90625 C 24.558594 -0.90625 23.328125 -2.425781 22.566406 -4.527344 L 22.601562 -4.527344 L 14.453125 -26.515625 C 14.453125 -26.515625 14.089844 -27.890625 13.945312 -27.890625 L 13.730469 -27.890625 C 13.835938 -27.238281 13.257812 -26.660156 12.316406 -26.515625 L 12.460938 -26.152344 L 3.914062 -4.203125 C 3.042969 -2.28125 1.414062 -0.90625 -0.109375 -0.90625 L -0.617188 -0.90625 L -0.617188 0 L 5.6875 0 L 5.6875 -0.90625 L 5.253906 -0.90625 C 3.914062 -0.90625 3.441406 -2.28125 4.058594 -4.203125 L 6.554688 -10.6875 L 18.113281 -10.6875 L 20.359375 -4.527344 C 21.117188 -2.425781 20.648438 -0.90625 19.234375 -0.90625 L 18.800781 -0.90625 Z M 12.496094 -26.007812 L 18.074219 -10.832031 L 6.628906 -10.832031 Z M 12.496094 -26.007812 "/></g></g></g><g fill="#5b4f47" fill-opacity="1"><g transform="translate(112.172904, 246.972194)"><g><path d="M 28 -2.570312 C 28.035156 -1.375 27.53125 -0.761719 26.660156 -0.761719 L 26.660156 -0.0351562 L 31.585938 -0.0351562 L 31.585938 -0.761719 C 30.71875 -0.761719 30.175781 -1.375 30.136719 -2.570312 L 29.484375 -24.8125 C 29.484375 -25.9375 29.957031 -26.480469 30.828125 -26.480469 L 30.71875 -27.167969 L 27.277344 -27.167969 L 17.097656 -2.609375 L 5.796875 -27.167969 L 2.136719 -27.167969 L 2.136719 -26.441406 C 2.863281 -26.441406 3.40625 -26.117188 3.984375 -25.355469 L 3.332031 -2.535156 C 3.296875 -1.339844 2.753906 -0.722656 1.882812 -0.722656 L 1.882812 0 L 5.46875 0 L 5.46875 -0.722656 C 4.671875 -0.722656 4.203125 -1.195312 4.128906 -2.210938 L 4.5625 -24.523438 C 8.402344 -16.335938 12.207031 -8.113281 16.082031 0 L 16.625 0 L 16.664062 -0.179688 L 27.386719 -25.5 C 27.601562 -17.859375 27.820312 -10.214844 28 -2.570312 Z M 28 -2.570312 "/></g></g></g><g fill="#5b4f47" fill-opacity="1"><g transform="translate(144.154541, 246.972194)"><g><path d="M 18.800781 0 L 25.683594 0 L 25.683594 -0.90625 L 25.429688 -0.90625 C 24.558594 -0.90625 23.328125 -2.425781 22.566406 -4.527344 L 22.601562 -4.527344 L 14.453125 -26.515625 C 14.453125 -26.515625 14.089844 -27.890625 13.945312 -27.890625 L 13.730469 -27.890625 C 13.835938 -27.238281 13.257812 -26.660156 12.316406 -26.515625 L 12.460938 -26.152344 L 3.914062 -4.203125 C 3.042969 -2.28125 1.414062 -0.90625 -0.109375 -0.90625 L -0.617188 -0.90625 L -0.617188 0 L 5.6875 0 L 5.6875 -0.90625 L 5.253906 -0.90625 C 3.914062 -0.90625 3.441406 -2.28125 4.058594 -4.203125 L 6.554688 -10.6875 L 18.113281 -10.6875 L 20.359375 -4.527344 C 21.117188 -2.425781 20.648438 -0.90625 19.234375 -0.90625 L 18.800781 -0.90625 Z M 12.496094 -26.007812 L 18.074219 -10.832031 L 6.628906 -10.832031 Z M 12.496094 -26.007812 "/></g></g></g><g fill="#5b4f47" fill-opacity="1"><g transform="translate(170.196214, 246.972194)"><g><path d="M 7.5 0 L 7.5 -0.722656 C 6.628906 -0.722656 6.085938 -1.339844 6.085938 -2.535156 L 6.085938 -13.222656 L 14.199219 -13.222656 C 14.707031 -12.0625 16.808594 -7.96875 19.5625 -2.898438 C 21.007812 -0.21875 21.515625 0 26.296875 0 L 26.296875 -0.433594 C 23.617188 -0.433594 23.292969 -0.617188 22.058594 -2.898438 C 19.269531 -8.003906 17.097656 -11.988281 16.335938 -13.367188 C 20.210938 -13.875 22.855469 -15.9375 22.855469 -19.5625 C 22.855469 -23.980469 19.234375 -27.167969 14.273438 -27.167969 L 2.535156 -27.167969 L 2.570312 -26.441406 C 3.441406 -26.441406 3.984375 -25.828125 3.984375 -24.632812 L 3.984375 -2.535156 C 3.984375 -1.339844 3.441406 -0.722656 2.570312 -0.722656 L 2.570312 0 Z M 6.050781 -13.765625 L 6.050781 -26.734375 L 13.621094 -26.734375 C 17.605469 -26.734375 20.503906 -23.90625 20.503906 -19.996094 C 20.503906 -15.828125 17.894531 -13.765625 14.273438 -13.765625 Z M 6.050781 -13.765625 "/></g></g></g><g fill="#5b4f47" fill-opacity="1"><g transform="translate(196.853614, 246.972194)"><g><path d="M 18.800781 0 L 25.683594 0 L 25.683594 -0.90625 L 25.429688 -0.90625 C 24.558594 -0.90625 23.328125 -2.425781 22.566406 -4.527344 L 22.601562 -4.527344 L 14.453125 -26.515625 C 14.453125 -26.515625 14.089844 -27.890625 13.945312 -27.890625 L 13.730469 -27.890625 C 13.835938 -27.238281 13.257812 -26.660156 12.316406 -26.515625 L 12.460938 -26.152344 L 3.914062 -4.203125 C 3.042969 -2.28125 1.414062 -0.90625 -0.109375 -0.90625 L -0.617188 -0.90625 L -0.617188 0 L 5.6875 0 L 5.6875 -0.90625 L 5.253906 -0.90625 C 3.914062 -0.90625 3.441406 -2.28125 4.058594 -4.203125 L 6.554688 -10.6875 L 18.113281 -10.6875 L 20.359375 -4.527344 C 21.117188 -2.425781 20.648438 -0.90625 19.234375 -0.90625 L 18.800781 -0.90625 Z M 12.496094 -26.007812 L 18.074219 -10.832031 L 6.628906 -10.832031 Z M 12.496094 -26.007812 "/></g></g></g><g fill="#5b4f47" fill-opacity="1"><g transform="translate(222.895286, 246.972194)"><g><path d="M 3.476562 -25.140625 L 3.441406 -2.535156 C 3.441406 -1.339844 2.898438 -0.722656 2.027344 -0.722656 L 2.027344 0 L 5.46875 0 L 5.46875 -0.722656 C 4.601562 -0.722656 4.058594 -1.339844 4.058594 -2.535156 L 3.984375 -24.558594 C 10.757812 -16.371094 17.496094 -8.148438 24.304688 0 L 24.742188 0 L 24.886719 -24.632812 C 24.886719 -25.828125 25.429688 -26.441406 26.296875 -26.441406 L 26.296875 -27.167969 L 22.855469 -27.167969 L 22.855469 -26.441406 C 23.726562 -26.441406 24.269531 -25.828125 24.269531 -24.632812 L 24.304688 -3.367188 L 4.527344 -27.167969 L 1.050781 -27.167969 L 1.015625 -26.441406 C 1.847656 -26.441406 2.609375 -26.007812 3.476562 -25.140625 Z M 3.476562 -25.140625 "/></g></g></g><g fill="#5b4f47" fill-opacity="1"><g transform="translate(251.363652, 246.972194)"><g><path d="M 29.339844 -26.660156 L 29.339844 -27.203125 L 29.378906 -27.09375 L 29.378906 -27.203125 L 2.027344 -27.203125 L 2.027344 -27.167969 C 1.992188 -27.09375 1.957031 -26.988281 1.917969 -26.914062 L 2.027344 -26.769531 C 1.667969 -25.863281 1.160156 -24.632812 0.832031 -23.800781 L 1.449219 -23.800781 L 1.773438 -24.234375 C 2.824219 -25.644531 4.890625 -26.660156 6.664062 -26.660156 L 14.632812 -26.660156 L 14.632812 -2.570312 C 14.632812 -1.375 14.089844 -0.761719 13.222656 -0.761719 L 13.183594 -0.0351562 L 18.148438 -0.0351562 L 18.148438 -0.761719 C 17.277344 -0.761719 16.734375 -1.375 16.734375 -2.570312 L 16.734375 -26.660156 L 24.632812 -26.660156 C 26.40625 -26.660156 28.472656 -25.644531 29.558594 -24.234375 L 29.882812 -23.800781 L 30.5 -23.800781 C 30.175781 -24.632812 29.703125 -25.792969 29.339844 -26.660156 Z M 29.339844 -26.660156 "/></g></g></g><g fill="#5b4f47" fill-opacity="1"><g transform="translate(282.657122, 246.972194)"><g><path d="M 31.261719 -13.582031 C 31.261719 -21.660156 25.066406 -27.53125 16.554688 -27.53125 C 8.222656 -27.53125 2.210938 -21.660156 2.210938 -13.582031 C 2.210938 -5.507812 8.078125 0.363281 16.191406 0.363281 C 24.921875 0.363281 31.261719 -5.507812 31.261719 -13.582031 Z M 4.527344 -13.582031 C 4.527344 -21.589844 9.5625 -27.386719 16.519531 -27.386719 C 23.726562 -27.386719 28.941406 -21.589844 28.941406 -13.582031 C 28.941406 -5.578125 23.617188 0.21875 16.226562 0.21875 C 9.453125 0.21875 4.527344 -5.578125 4.527344 -13.582031 Z M 4.527344 -13.582031 "/></g></g></g></svg>